:SAMPLES-PER-SECOND 30
:FULLY-SPECIFIED
:DEGREES
171
root  -33.9446 34.4643 5.30648 -171.507 66.7458 179.643
RightUpLeg  -10.5343 -14.7499 2.85457
RightLeg  11.6763 0.80302 0.113519
RightFoot  -0.696164 -9.26511e-005 0.0310108
RightToes  -21.3359 -0.0885012 -0.186206
Spine  -2.75193 -1.85817 0.911157
Spine1  -5.44223 -4.18506 2.63845
HEad  -69.9886 -11.2564 12.2901
LeftShoulder1  -1.94126e-019 -3.10601e-018 -2.51263e-017
LeftArm  -21.1459 31.3731 -83.2418
LeftForeArm  32.3958 -8.42342 -1.47568
LeftHand  -0.339343 -0.297847 7.0098
RightShoulder  -4.96962e-017 0 -2.36833e-017
RightArm  -42.4267 -34.4147 74.3364
RightForeArm  61.6507 7.50926 1.27768
RightHand  -0.183295 -3.2135 -9.14456
LeftUpLeg  -9.76884 7.10745 1.39632
LeftLeg  12.8844 15.7006 2.50859
LeftFoot  2.16444 0.00804582 0.687187
LeftToes  -21.2422 1.89912e-006 4.45198e-008
172
root  -33.9332 34.4859 5.38911 -171.346 67.5979 179.732
RightUpLeg  -10.4571 -14.2713 2.99328
RightLeg  11.1563 1.18042 0.15568
RightFoot  -0.395702 0.000124914 0.033232
RightToes  -21.5147 -0.0879296 -0.185657
Spine  -2.70221 -1.66565 0.900812
Spine1  -5.35532 -3.76655 2.59275
HEad  -70.0193 -11.1285 12.3934
LeftShoulder1  -1.94126e-019 -3.10601e-018 -2.51263e-017
LeftArm  -21.0474 31.7832 -83.2102
LeftForeArm  31.5447 -9.5528 -1.6773
LeftHand  -0.347327 -0.353089 7.10952
RightShoulder  -4.96962e-017 0 -2.36833e-017
RightArm  -42.5455 -33.9339 74.4764
RightForeArm  61.6739 7.6635 1.30361
RightHand  -0.189004 -3.09913 -8.99774
LeftUpLeg  -9.71769 7.52975 1.49231
LeftLeg  12.7993 16.1201 2.54963
LeftFoot  2.31263 0.00256994 0.748364
LeftToes  -21.5222 1.89912e-006 4.45198e-008
173
root  -33.9267 34.5202 5.49309 -170.872 68.5452 -179.939
RightUpLeg  -10.3486 -13.2831 3.25605
RightLeg  10.3526 1.16362 0.137008
RightFoot  0.0987499 0.000292424 0.0470614
RightToes  -21.3846 -0.0873237 -0.185174
Spine  -2.66408 -1.36637 0.903881
Spine1  -5.30193 -3.12408 2.56326
HEad  -70.4111 -11.0013 12.5234
LeftShoulder1  -1.94126e-019 -3.10601e-018 -2.51263e-017
LeftArm  -19.1479 31.9605 -82.9528
LeftForeArm  30.6864 -11.1085 -1.92163
LeftHand  -0.35525 -0.521678 7.07786
RightShoulder  -4.96962e-017 0 -2.36833e-017
RightArm  -40.0655 -33.7431 74.7755
RightForeArm  59.6135 9.04552 1.48087
RightHand  -0.203529 -2.70011 -8.4549
LeftUpLeg  -9.75318 8.41803 1.68075
LeftLeg  12.6717 16.1426 2.5168
LeftFoot  2.49245 -0.00270468 0.802666
LeftToes  -21.6708 1.89912e-006 4.45198e-008
174
root  -33.9094 34.5634 5.57034 -170.691 68.9795 -179.88
RightUpLeg  -10.002 -13.3148 3.40493
RightLeg  9.28107 1.64863 0.162628
RightFoot  0.635779 0.00242639 0.0673306
RightToes  -21.4979 -0.0866975 -0.184721
Spine  -2.599 -1.21777 0.879883
Spine1  -5.19681 -2.76465 2.48598
HEad  -70.7111 -10.9236 12.6047
LeftShoulder1  -1.94126e-019 -3.10601e-018 -2.51263e-017
LeftArm  -17.0465 31.7174 -82.6188
LeftForeArm  30.0953 -12.5475 -2.09295
LeftHand  -0.359948 -0.794771 6.87707
RightShoulder  -4.96962e-017 0 -2.36833e-017
RightArm  -36.4363 -33.4083 75.1189
RightForeArm  56.5875 10.9598 1.54117
RightHand  -0.216722 -2.30754 -7.93863
LeftUpLeg  -9.62927 8.61085 1.77271
LeftLeg  12.2341 16.3923 2.42852
LeftFoot  2.82051 -0.0118864 0.91473
LeftToes  -21.7386 1.89912e-006 4.45198e-008
175
root  -33.8939 34.6157 5.6437 -170.544 69.1741 -179.804
RightUpLeg  -9.53254 -13.4246 3.55617
RightLeg  8.10167 1.96985 0.153311
RightFoot  1.19651 0.00421183 0.0976612
RightToes  -21.3325 -0.0860655 -0.184261
Spine  -2.53052 -1.12952 0.852179
Spine1  -5.08388 -2.51124 2.40346
HEad  -70.6842 -10.9249 12.5127
LeftShoulder1  -1.94126e-019 -3.10601e-018 -2.51263e-017
LeftArm  -15.0596 31.1089 -82.2505
LeftForeArm  29.6597 -13.9176 -2.23468
LeftHand  -0.35465 -1.06147 6.51919
RightShoulder  -4.96962e-017 0 -2.36833e-017
RightArm  -32.3086 -32.8584 75.4015
RightForeArm  53.3528 13.0119 1.41258
RightHand  -0.226118 -2.07094 -7.644
LeftUpLeg  -9.39916 8.80389 1.88566
LeftLeg  11.5871 16.4264 2.24703
LeftFoot  3.21292 -0.0219328 1.03806
LeftToes  -21.6984 1.89912e-006 4.45198e-008
176
root  -33.8763 34.6648 5.71642 -170.427 69.3217 -179.708
RightUpLeg  -9.08534 -13.2586 3.69549
RightLeg  7.09056 1.97985 0.118991
RightFoot  1.71754 0.00580901 0.127271
RightToes  -21.2515 -0.0854417 -0.183759
Spine  -2.47555 -1.02436 0.829669
Spine1  -4.99279 -2.21625 2.33546
HEad  -70.4975 -10.7274 12.3364
LeftShoulder1  -1.94126e-019 -3.10601e-018 -2.51263e-017
LeftArm  -13.5013 30.2912 -81.9769
LeftForeArm  29.4912 -15.7283 -2.4905
LeftHand  -0.347706 -1.11894 6.34214
RightShoulder  -4.96962e-017 0 -2.36833e-017
RightArm  -29.1956 -31.9876 75.5655
RightForeArm  50.9959 14.7402 1.25802
RightHand  -0.234425 -1.89302 -7.55651
LeftUpLeg  -9.04807 9.03638 2.01664
LeftLeg  10.7845 16.377 2.01067
LeftFoot  3.69588 -0.0335872 1.18499
LeftToes  -21.8367 1.89912e-006 4.45198e-008
177
root  -33.8589 34.7054 5.78644 -170.396 69.3779 -179.669
RightUpLeg  -8.70373 -13.1603 3.81488
RightLeg  6.28901 1.95688 0.0901502
RightFoot  2.10611 0.00668217 0.151913
RightToes  -21.1112 -0.0848405 -0.183176
Spine  -2.43412 -0.954794 0.800361
Spine1  -4.92365 -1.99488 2.26063
HEad  -70.0433 -10.777 12.0597
LeftShoulder1  -1.94126e-019 -3.10601e-018 -2.51263e-017
LeftArm  -12.5067 29.1424 -81.844
LeftForeArm  29.8547 -16.9377 -2.67466
LeftHand  -0.347574 -1.18003 6.28587
RightShoulder  -4.96962e-017 0 -2.36833e-017
RightArm  -27.0562 -30.8037 75.6419
RightForeArm  49.6472 16.0759 1.21713
RightHand  -0.242681 -1.73473 -7.51393
LeftUpLeg  -8.67286 9.13589 2.13954
LeftLeg  9.96975 16.3587 1.77621
LeftFoot  4.16982 -0.0452638 1.33166
LeftToes  -22.0131 1.89912e-006 4.45198e-008
178
root  -33.8377 34.7424 5.85845 -170.385 69.3795 -179.63
RightUpLeg  -8.31587 -13.1786 3.93912
RightLeg  5.53489 2.00356 0.0658216
RightFoot  2.48647 0.00711948 0.177953
RightToes  -21.0528 -0.0842763 -0.182478
Spine  -2.40062 -0.895131 0.758803
Spine1  -4.86573 -1.80418 2.16874
HEad  -69.6074 -10.5541 11.9243
LeftShoulder1  -1.94126e-019 -3.10601e-018 -2.51263e-017
LeftArm  -11.86 27.7577 -81.7807
LeftForeArm  30.2175 -17.7856 -2.82938
LeftHand  -0.355549 -1.20667 6.40348
RightShoulder  -4.96962e-017 0 -2.36833e-017
RightArm  -25.7461 -29.3757 75.7139
RightForeArm  49.0361 17.0211 1.29791
RightHand  -0.245136 -1.69644 -7.51876
LeftUpLeg  -8.29285 9.18658 2.27541
LeftLeg  9.19491 16.3281 1.55311
LeftFoot  4.64069 -0.0567781 1.47599
LeftToes  -22.2714 1.89912e-006 4.45198e-008
179
root  -33.812 34.7762 5.93114 -170.334 69.3787 -179.55
RightUpLeg  -7.93231 -13.3246 4.09023
RightLeg  4.79295 2.15311 0.0426976
RightFoot  2.82031 0.00730046 0.206106
RightToes  -20.8742 -0.083763 -0.181626
Spine  -2.38766 -0.827109 0.718005
Spine1  -4.84448 -1.61271 2.08532
HEad  -69.2431 -10.4747 11.8611
LeftShoulder1  -1.94126e-019 -3.10601e-018 -2.51263e-017
LeftArm  -11.3184 26.4379 -81.7628
LeftForeArm  30.3986 -18.6966 -2.98742
LeftHand  -0.357923 -1.23199 6.42283
RightShoulder  -4.96962e-017 0 -2.36833e-017
RightArm  -24.9263 -27.8633 75.7836
RightForeArm  48.8123 17.6708 1.41919
RightHand  -0.246803 -1.7211 -7.57276
LeftUpLeg  -7.901 9.27498 2.42778
LeftLeg  8.3961 16.2701 1.32239
LeftFoot  5.10472 -0.0678226 1.61397
LeftToes  -22.5237 1.89912e-006 4.45198e-008
180
root  -33.7894 34.8034 6.00151 -170.346 69.3779 -179.539
RightUpLeg  -7.55814 -13.3374 4.19517
RightLeg  4.07515 2.18411 0.0158505
RightFoot  3.06206 0.00780588 0.225208
RightToes  -20.4693 -0.0833152 -0.180585
Spine  -2.38485 -0.771357 0.671559
Spine1  -4.84028 -1.46105 1.99662
HEad  -68.8632 -10.3804 11.7098
LeftShoulder1  -1.94126e-019 -3.10601e-018 -2.51263e-017
LeftArm  -10.6202 25.2784 -81.8025
LeftForeArm  29.8015 -19.8643 -3.171
LeftHand  -0.351002 -0.856671 6.70836
RightShoulder  -4.96962e-017 0 -2.36833e-017
RightArm  -24.1871 -26.3334 75.8698
RightForeArm  48.653 18.1296 1.50847
RightHand  -0.24696 -1.75362 -7.68886
LeftUpLeg  -7.55546 9.2392 2.55358
LeftLeg  7.69795 16.3005 1.12789
LeftFoot  5.53911 -0.0786626 1.75053
LeftToes  -22.8072 1.89912e-006 4.45198e-008
181
root  -33.7637 34.826 6.06977 -170.369 69.379 -179.542
RightUpLeg  -7.24537 -13.4538 4.30804
RightLeg  3.4796 2.29727 -0.00733067
RightFoot  3.27862 0.00768592 0.245968
RightToes  -20.2661 -0.0829471 -0.178958
Spine  -2.40168 -0.718298 0.625156
Spine1  -4.87262 -1.3278 1.91129
HEad  -68.5024 -10.3565 11.5315
LeftShoulder1  -1.94126e-019 -3.10601e-018 -2.51263e-017
LeftArm  -10.05 24.344 -81.8394
LeftForeArm  29.5734 -21.0912 -3.34476
LeftHand  -0.350904 -0.843662 6.71291
RightShoulder  -4.96962e-017 0 -2.36833e-017
RightArm  -23.6637 -24.9551 75.985
RightForeArm  48.5822 18.5043 1.57918
RightHand  -0.248044 -1.76431 -7.74536
LeftUpLeg  -7.28138 9.34707 2.67389
LeftLeg  7.14944 16.2028 0.967715
LeftFoot  5.89502 -0.086893 1.84904
LeftToes  -23.0386 1.89912e-006 4.45198e-008
182
root  -33.736 34.8433 6.13574 -170.397 69.345 -179.535
RightUpLeg  -6.93411 -13.5339 4.41276
RightLeg  2.94192 2.37091 -0.0299247
RightFoot  3.46843 0.00753983 0.262916
RightToes  -20.097 -0.0825517 -0.177342
Spine  -2.41856 -0.659655 0.57732
Spine1  -4.9022 -1.19499 1.82609
HEad  -68.1659 -10.4766 11.3461
LeftShoulder1  -1.94126e-019 -3.10601e-018 -2.51263e-017
LeftArm  -9.38731 23.5201 -81.9087
LeftForeArm  29.4863 -22.3367 -3.51592
LeftHand  -0.352907 -0.939073 6.60278
RightShoulder  -4.96962e-017 0 -2.36833e-017
RightArm  -23.2161 -23.7553 76.1305
RightForeArm  48.565 18.7928 1.63224
RightHand  -0.251116 -1.73694 -7.82459
LeftUpLeg  -7.04437 9.35271 2.79965
LeftLeg  6.71263 16.1618 0.843446
LeftFoot  6.17281 -0.0953226 1.92927
LeftToes  -23.1565 1.89912e-006 4.45198e-008
183
root  -33.7032 34.8558 6.20072 -170.423 69.2906 -179.503
RightUpLeg  -6.63503 -13.6219 4.52871
RightLeg  2.4831 2.42066 -0.0500367
RightFoot  3.62137 0.00771649 0.275992
RightToes  -19.9943 -0.0820285 -0.175664
Spine  -2.4328 -0.61038 0.531436
Spine1  -4.92579 -1.08789 1.74416
HEad  -68.0291 -10.4723 11.2957
LeftShoulder1  -1.94126e-019 -3.10601e-018 -2.51263e-017
LeftArm  -8.60294 22.8997 -81.9962
LeftForeArm  29.2382 -23.6037 -3.69464
LeftHand  -0.351365 -0.943696 6.57
RightShoulder  -4.96962e-017 0 -2.36833e-017
RightArm  -22.6708 -22.7608 76.2962
RightForeArm  48.6193 19.0621 1.67894
RightHand  -0.251923 -1.76947 -7.88158
LeftUpLeg  -6.86134 9.38495 2.94044
LeftLeg  6.42996 16.0915 0.761377
LeftFoot  6.41032 -0.102912 1.99287
LeftToes  -23.4337 1.89912e-006 4.45198e-008
